/* XPM */
static char *_de21a8b5ddb44faec9eefaab1a3d798CXdbtfXt2rGtucEl[] = {
/* columns rows colors chars-per-pixel */
"16 16 15 1 ",
"  c None",
". c #121C21",
"X c #463F46",
"o c #585760",
"O c #B1186A",
"+ c #854D64",
"@ c #AB7777",
"# c #DC7974",
"$ c #8C9397",
"% c #B3A7BE",
"& c #F2888A",
"* c #F4BCA3",
"= c #FCD4C0",
"- c #FDE9DE",
"; c #DBE7EB",
/* pixels */
"     ... ....   ",
"     .+X..@@+.  ",
" ....X++XX.@@.  ",
" .++++X+.XX+@.  ",
"  .+@@@+X+@@..  ",
"   ..X@.X@@XO.  ",
"   .X@.*.@X.&.  ",
"   .++.-&X*.-.  ",
"   ...X.+*-O-.  ",
"     .XXX*--&.  ",
"      ...++..   ",
"      .;;;$.    ",
"     .=#X;o.    ",
"     .=&Xo.     ",
"      ..%;.     ",
"       ....     "
};
