/* XPM */
static char *_adacaefc72b42f694a3d5848af50325A1eb4khvBsvPSWuG[] = {
/* columns rows colors chars-per-pixel */
"16 16 13 1 ",
"  c None",
". c #121C21",
"X c #463F46",
"o c #585760",
"O c #B1186A",
"+ c #854D64",
"@ c #AB7777",
"# c #8C9397",
"$ c #F2888A",
"% c #F4BCA3",
"& c #FCD4C0",
"* c #FDE9DE",
"= c #DBE7EB",
/* pixels */
"  ...    .      ",
"  .@.  ..+.     ",
" .+@+..X++....  ",
" .@@X..++XX++.  ",
" .@+@@X.XX@@X.  ",
"  ..+@@@X@@+.   ",
"  .OX+@X..+..   ",
"  .%.X..*.@+.   ",
"  .*.*%+$.+..   ",
"  .*@**X.X.     ",
"  .+**%XXX.     ",
"   ...+.....    ",
"    .##==X%&.   ",
"   .=#o#=X&%.   ",
"   .o=o.....    ",
"    ... ..      "
};
