/* XPM */
static char *e6cc2512892d4ccc9227a8e7a1ab3b05nKNGpMUIRMvdC4vx[] = {
/* columns rows colors chars-per-pixel */
"16 16 12 1 ",
"  c None",
". c #121C21",
"X c #463F46",
"o c #B1186A",
"O c #854D64",
"+ c #AB7777",
"@ c #B3A7BE",
"# c #F2888A",
"$ c #F4BCA3",
"% c #FCD4C0",
"& c #FDE9DE",
"* c #DBE7EB",
/* pixels */
"  ....          ",
" .O++X.   ...   ",
"  .O+++...XX.   ",
"  ..XO++O+++.   ",
"..XO++OO.XO++...",
".XOOOOX..++XOOO.",
" ..XXX.o#.X.XX. ",
"  ..#.####.#X.  ",
"   .#.#$$$.#.   ",
"   .$+&oo&+$.   ",
"   .X&&&&&&X.   ",
"    ...OOO..    ",
"   .&#X..X@.    ",
"   .%&X.*X.     ",
"    ....*.      ",
"       ...      "
};
