/* XPM */
static char *_57848a101a34423e872a2d1c12e8f4buyIGxCLkPZMwk3Ph[] = {
/* columns rows colors chars-per-pixel */
"16 16 13 1 ",
"  c None",
". c #121C21",
"X c #463F46",
"o c #585760",
"O c #B1186A",
"+ c #854D64",
"@ c #AB7777",
"# c #8C9397",
"$ c #F2888A",
"% c #F4BCA3",
"& c #FCD4C0",
"* c #FDE9DE",
"= c #DBE7EB",
/* pixels */
"      .    ...  ",
"     .+..  .@.  ",
"  ....++X..+@+. ",
"  .++XX++..X@@. ",
"  .X@@XX.X@@+@. ",
"   .+@@X@@@+..  ",
"   ..+..X@+XO.  ",
"   .+@.*..X.%.  ",
"   ..+.$+%*.*.  ",
"     .X.X**@*.  ",
"     .XXX%**+.  ",
"    .....+...   ",
"   .&%X==##.    ",
"   .%&X=#o#=.   ",
"    .....o=o.   ",
"      .. ...    "
};
