/* XPM */
static char *_c682ee30309401ab8aa2c68e07d63f9MZHZZe7567TCXK87[] = {
/* columns rows colors chars-per-pixel */
"16 16 15 1 ",
"  c None",
". c #121C21",
"X c #463F46",
"o c #585760",
"O c #B1186A",
"+ c #854D64",
"@ c #AB7777",
"# c #DC7974",
"$ c #8C9397",
"% c #B3A7BE",
"& c #F2888A",
"* c #F4BCA3",
"= c #FCD4C0",
"- c #FDE9DE",
"; c #DBE7EB",
/* pixels */
"   .... ...     ",
"  .+@@..X+.     ",
"  .@@.XX++X.... ",
"  .@+XX.+X++++. ",
"  ..@@+X+@@@+.  ",
"  .OX@@X.@X..   ",
"  .&.X@.*.@X.   ",
"  .-.*X&-.++.   ",
"  .-O-*+.X...   ",
"  .&--*XXX.     ",
"   ..++...      ",
"    .$;;;.      ",
"    .o;X#=.     ",
"     .oX&=.     ",
"     .;%..      ",
"     ....       "
};
