/* XPM */
static char *_079225479274fc3cbeaeb5e0ab92a08jYqqLxjQXzIz2E5k[] = {
/* columns rows colors chars-per-pixel */
"16 16 15 1 ",
"  c None",
". c #121C21",
"X c #463F46",
"o c #585760",
"O c #B1186A",
"+ c #854D64",
"@ c #AB7777",
"# c #DC7974",
"$ c #8C9397",
"% c #B3A7BE",
"& c #F2888A",
"* c #F4BCA3",
"= c #FCD4C0",
"- c #FDE9DE",
"; c #DBE7EB",
/* pixels */
" ......         ",
".+@@@@@.......  ",
" .+@@@@@+@@+.   ",
"  ...+@+.+@@+.  ",
" ..++@+..@@.++. ",
" .++++.O&.+.X++.",
"  .X&.O&&&.&X...",
"  .X&.&&**.&X.  ",
"   .*O-OO-O*.   ",
"   .+------+.   ",
"    ..++++..    ",
"    .%;;;;%.    ",
"   .#$;;;;$#.   ",
"   .=Xo$$oX=.   ",
"    ..;..;..    ",
"     ..  ..     "
};
