/* XPM */
static char *d117f285c2274d1b953aad762b59c775x6JoqPIlkcKdLiVv[] = {
/* columns rows colors chars-per-pixel */
"16 16 9 1 ",
"  c None",
". c #463F46",
"X c #6F3E44",
"o c #B1186A",
"O c #A06C64",
"+ c #DC7974",
"@ c #C48778",
"# c #FFDA52",
"$ c #FEFCF6",
/* pixels */
"                ",
"                ",
"                ",
"   ..........   ",
"  .O++OOOO++X.  ",
" .+O++OOOO++X@. ",
" .+O$$@@@@$$X@. ",
" .#@##@@@@##O+. ",
" .$+@@@@@@@@+#. ",
" .O$$$#OO+$$#X. ",
" .XO++O#+OooOX. ",
" .O@##XXXX##@X. ",
" .O@##@@@@##@X. ",
" .O@##@@@@##@X. ",
" ...++....++... ",
"    ..    ..    "
};
