/* XPM */
static char *e30ec1d20a7645a0815d470a788f53e8u3JSxg0ezUVBKkYR[] = {
/* columns rows colors chars-per-pixel */
"16 16 3 1 ",
"  c #5B4A3D",
". c #6A564A",
"X c #806454",
/* pixels */
"XXXXXXXXXXX.....",
"XXXXXXXXXX.X..XX",
"XXXXXXXXXXXXXXXX",
"XXXXXXXXXXXXXXXX",
"XXXXXXXXXXXXXXXX",
"XXXXXXXXXXXXXXXX",
"XXXXXXXXXXXXXXXX",
"XXXXXXXXXXXXXXXX",
"XXXXXXXXXXXXXXXX",
"XXXXXXXXXXXXXXXX",
"XXXXXXXXXXXXXXXX",
"XXXXXXXXXXXXXXXX",
"XXXXXXXXXXXXXXXX",
"XXXXXXXXXXXXXXXX",
"XXXXXXXXXXXX..XX",
"XXXXXXXXXXX.. .X"
};
